<!-- <svg xmlns="http://www.w3.org/2000/svg" width="24" height="24" viewBox="0 0 24 24" fill="none">
  <path fill-rule="evenodd" clip-rule="evenodd" d="M9 1.25C6.37665 1.25 4.25 3.37665 4.25 6C4.25 8.62335 6.37665 10.75 9 10.75C11.6234 10.75 13.75 8.62335 13.75 6C13.75 3.37665 11.6234 1.25 9 1.25ZM5.75 6C5.75 4.20507 7.20507 2.75 9 2.75C10.7949 2.75 12.25 4.20507 12.25 6C12.25 7.79493 10.7949 9.25 9 9.25C7.20507 9.25 5.75 7.79493 5.75 6Z" fill="#877EFF"/>
  <path d="M15 2.25C14.5858 2.25 14.25 2.58579 14.25 3C14.25 3.41421 14.5858 3.75 15 3.75C16.2426 3.75 17.25 4.75736 17.25 6C17.25 7.24264 16.2426 8.25 15 8.25C14.5858 8.25 14.25 8.58579 14.25 9C14.25 9.41421 14.5858 9.75 15 9.75C17.0711 9.75 18.75 8.07107 18.75 6C18.75 3.92893 17.0711 2.25 15 2.25Z" fill="#877EFF"/>
  <path fill-rule="evenodd" clip-rule="evenodd" d="M3.67815 13.5204C5.07752 12.7208 6.96067 12.25 9 12.25C11.0393 12.25 12.9225 12.7208 14.3219 13.5204C15.7 14.3079 16.75 15.5101 16.75 17C16.75 18.4899 15.7 19.6921 14.3219 20.4796C12.9225 21.2792 11.0393 21.75 9 21.75C6.96067 21.75 5.07752 21.2792 3.67815 20.4796C2.3 19.6921 1.25 18.4899 1.25 17C1.25 15.5101 2.3 14.3079 3.67815 13.5204ZM4.42236 14.8228C3.26701 15.483 2.75 16.2807 2.75 17C2.75 17.7193 3.26701 18.517 4.42236 19.1772C5.55649 19.8253 7.17334 20.25 9 20.25C10.8267 20.25 12.4435 19.8253 13.5776 19.1772C14.733 18.517 15.25 17.7193 15.25 17C15.25 16.2807 14.733 15.483 13.5776 14.8228C12.4435 14.1747 10.8267 13.75 9 13.75C7.17334 13.75 5.55649 14.1747 4.42236 14.8228Z" fill="#877EFF"/>
  <path d="M18.1607 13.2674C17.7561 13.1787 17.3561 13.4347 17.2674 13.8393C17.1787 14.2439 17.4347 14.6439 17.8393 14.7326C18.6317 14.9064 19.2649 15.2048 19.6829 15.5468C20.1014 15.8892 20.25 16.2237 20.25 16.5C20.25 16.7507 20.1294 17.045 19.7969 17.3539C19.462 17.665 18.9475 17.9524 18.2838 18.1523C17.8871 18.2717 17.6624 18.69 17.7818 19.0867C17.9013 19.4833 18.3196 19.708 18.7162 19.5886C19.5388 19.3409 20.2743 18.9578 20.8178 18.4529C21.3637 17.9457 21.75 17.2786 21.75 16.5C21.75 15.6352 21.2758 14.912 20.6328 14.3859C19.9893 13.8593 19.1225 13.4783 18.1607 13.2674Z" fill="#877EFF"/>
</svg> -->

<svg viewBox="0 0 24 24" fill="none" xmlns="http://www.w3.org/2000/svg" height="30" width="30">
<g id="SVGRepo_bgCarrier" stroke-width="0"></g><g id="SVGRepo_tracerCarrier" stroke-linecap="round" stroke-linejoin="round"></g>
<g id="SVGRepo_iconCarrier"> <path opacity="0.4" d="M17.5291 7.77C17.4591 7.76 17.3891 7.76 17.3191 7.77C15.7691 7.72 14.5391 6.45 14.5391 4.89C14.5391 3.3 15.8291 2 17.4291 2C19.0191 2 20.3191 3.29 20.3191 4.89C20.3091 6.45 19.0791 7.72 17.5291 7.77Z" fill="#0fb8b5"></path> 
<path opacity="0.4" d="M20.7896 14.6999C19.6696 15.4499 18.0996 15.7299 16.6496 15.5399C17.0296 14.7199 17.2296 13.8099 17.2396 12.8499C17.2396 11.8499 17.0196 10.8999 16.5996 10.0699C18.0796 9.86992 19.6496 10.1499 20.7796 10.8999C22.3596 11.9399 22.3596 13.6499 20.7896 14.6999Z" fill="#0fb8b5"></path>
 <path opacity="0.4" d="M6.44039 7.77C6.51039 7.76 6.58039 7.76 6.65039 7.77C8.20039 7.72 9.43039 6.45 9.43039 4.89C9.43039 3.3 8.14039 2 6.54039 2C4.95039 2 3.65039 3.29 3.65039 4.89C3.66039 6.45 4.89039 7.72 6.44039 7.77Z" fill="#0fb8b5"></path> <path opacity="0.4" d="M6.54914 12.8501C6.54914 13.8201 6.75914 14.7401 7.13914 15.5701C5.72914 15.7201 4.25914 15.4201 3.17914 14.7101C1.59914 13.6601 1.59914 11.9501 3.17914 10.9001C4.24914 10.1801 5.75914 9.8901 7.17914 10.0501C6.76914 10.8901 6.54914 11.8401 6.54914 12.8501Z" fill="#0fb8b5">
 </path> <path d="M12.1208 15.87C12.0408 15.86 11.9508 15.86 11.8608 15.87C10.0208 15.81 8.55078 14.3 8.55078 12.44C8.55078 10.54 10.0808 9 11.9908 9C13.8908 9 15.4308 10.54 15.4308 12.44C15.4308 14.3 13.9708 15.81 12.1208 15.87Z" fill="#0fb8b5"></path> 
<path d="M8.87078 17.9399C7.36078 18.9499 7.36078 20.6099 8.87078 21.6099C10.5908 22.7599 13.4108 22.7599 15.1308 21.6099C16.6408 20.5999 16.6408 18.9399 15.1308 17.9399C13.4208 16.7899 10.6008 16.7899 8.87078 17.9399Z" fill="#0fb8b5"></path> </g></svg>